<svg width="900" height="600"><path fill="#f93" d="M0 0h900v600H0z"/><path fill="#fff" d="M0 200h900v400H0z"/><path fill="#128807" d="M0 400h900v200H0z"/><circle r="80" fill="#008" cx="450" cy="300"/><circle r="70" fill="#fff" cx="450" cy="300"/><circle r="14" fill="#008" cx="450" cy="300"/><circle transform="rotate(7.5000001)" r="3.5" cx="555.308" cy="238.697" fill="#008"/><path d="m450 370 2.4-42-2.4-20-2.4 20z" fill="#008"/><circle transform="rotate(22.5)" r="3.5" cx="600.551" cy="104.956" fill="#008"/><path d="m431.883 367.615 13.188-39.948 2.858-19.94-7.494 18.698z" fill="#008"/><circle transform="rotate(37.5)" r="3.5" cx="609.637" cy="-35.937" fill="#008"/><path d="m415 360.622 23.078-35.173 7.922-18.52-12.078 16.12z" fill="#008"/><circle transform="rotate(52.5)" r="3.5" cx="581.949" cy="-174.381" fill="#008"/><path d="m400.503 349.497 31.395-28.001 12.445-15.84-15.839 12.446z" fill="#008"/><circle transform="rotate(67.5)" r="3.5" cx="519.371" cy="-300.941" fill="#008"/><path d="m389.378 335 37.573-18.922L443.071 304l-18.52 7.922z" fill="#008"/><circle transform="rotate(82.5)" r="3.5" cx="426.17" cy="-406.992" fill="#008"/><path d="m382.385 318.117 41.19-8.552 18.698-7.494-19.94 2.858z" fill="#008"/><circle transform="rotate(97.5)" r="3.5" cx="308.697" cy="-485.308" fill="#008"/><path d="m380 300 42 2.4 20-2.4-20-2.4z" fill="#008"/><circle transform="rotate(112.5)" r="3.5" cx="174.956" cy="-530.551" fill="#008"/><path d="m382.385 281.883 39.948 13.188 19.94 2.858-18.698-7.494z" fill="#008"/><circle transform="rotate(127.5)" r="3.5" cx="34.063" cy="-539.637" fill="#008"/><path d="m389.378 265 35.173 23.078 18.52 7.922-16.12-12.078z" fill="#008"/><circle transform="rotate(142.5)" r="3.5" cx="-104.381" cy="-511.949" fill="#008"/><path d="m400.503 250.503 28.001 31.395 15.84 12.445-12.446-15.839z" fill="#008"/><circle transform="rotate(157.5)" r="3.5" cx="-230.941" cy="-449.371" fill="#008"/><path d="m415 239.378 18.922 37.573L446 293.071l-7.921-18.52z" fill="#008"/><circle transform="rotate(172.5)" r="3.5" cx="-336.992" cy="-356.17" fill="#008"/><path d="m431.883 232.385 8.552 41.19 7.494 18.698-2.858-19.94z" fill="#008"/><circle transform="rotate(-172.5)" r="3.5" cx="-415.308" cy="-238.697" fill="#008"/><path d="m450 230-2.4 42 2.4 20 2.4-20z" fill="#008"/><circle transform="rotate(-157.5)" r="3.5" cx="-460.551" cy="-104.956" fill="#008"/><path d="m468.117 232.385-13.188 39.948-2.858 19.94 7.494-18.698z" fill="#008"/><circle transform="rotate(-142.5)" r="3.5" cx="-469.637" cy="35.937" fill="#008"/><path d="m485 239.378-23.078 35.173-7.922 18.52 12.078-16.12z" fill="#008"/><circle transform="rotate(-127.5)" r="3.5" cx="-441.949" cy="174.381" fill="#008"/><path d="m499.497 250.503-31.395 28.001-12.445 15.84 15.84-12.446z" fill="#008"/><circle transform="rotate(-112.5)" r="3.5" cx="-379.371" cy="300.941" fill="#008"/><path d="m510.622 265-37.573 18.922L456.929 296l18.52-7.922z" fill="#008"/><circle transform="rotate(-97.5)" r="3.5" cx="-286.17" cy="406.992" fill="#008"/><path d="m517.615 281.883-41.19 8.552-18.698 7.494 19.94-2.858z" fill="#008"/><circle transform="rotate(-82.5)" r="3.5" cx="-168.697" cy="485.308" fill="#008"/><path d="m520 300-42-2.4-20 2.4 20 2.4z" fill="#008"/><circle transform="rotate(-67.5)" r="3.5" cx="-34.956" cy="530.551" fill="#008"/><path d="m517.615 318.117-39.948-13.188-19.94-2.858 18.698 7.494z" fill="#008"/><circle transform="rotate(-52.5)" r="3.5" cx="105.937" cy="539.637" fill="#008"/><path d="m510.622 335-35.173-23.078-18.52-7.922 16.12 12.078z" fill="#008"/><circle transform="rotate(-37.5)" r="3.5" cx="244.381" cy="511.949" fill="#008"/><path d="m499.497 349.497-28.001-31.395-15.84-12.445 12.446 15.84z" fill="#008"/><circle transform="rotate(-22.5)" r="3.5" cx="370.941" cy="449.371" fill="#008"/><path d="m485 360.622-18.922-37.573L454 306.929l7.921 18.52z" fill="#008"/><circle transform="rotate(-7.5000004)" r="3.5" cx="476.992" cy="356.17" fill="#008"/><path d="m468.117 367.615-8.552-41.19-7.494-18.698 2.858 19.94z" fill="#008"/></svg>