<svg width="900" height="600" viewBox="0 0 54 36" fill="#fff"><path d="M0 0h54v36H0z"/><path d="M0 0h54v18H0z" fill="#ed2939"/><path d="M32.125 9a6.625 6.625 0 0 1-6.625 6.625A6.625 6.625 0 0 1 18.875 9 6.625 6.625 0 0 1 25.5 2.375 6.625 6.625 0 0 1 32.125 9Z"/><path d="M35.125 9a6.625 6.625 0 0 1-6.625 6.625A6.625 6.625 0 0 1 21.875 9 6.625 6.625 0 0 1 28.5 2.375 6.625 6.625 0 0 1 35.125 9Z" fill="#ed2939"/><path d="m29.125 3.475-1.014 3.12 2.655-1.928h-3.282l2.655 1.929zm5.255 3.818h-3.282l2.655 1.928-1.014-3.12-1.014 3.12zm-8.503 6.177 2.655-1.929h-3.281l2.654 1.929-1.014-3.12zm6.496 0-1.014-3.12-1.014 3.12 2.654-1.929h-3.281zM23.87 7.293l2.655 1.928-1.014-3.12-1.014 3.12 2.655-1.928Z"/></svg>