<svg width="1200" height="600" viewBox="0 0 1400 700"><path fill="#060" d="M0 0h1400v700H0z"/><path fill="#fff" d="M0 0h1400v500H0z"/><path fill="#c00" d="M0 0h1400v200H0z"/><path d="M672 340.366a12.5 12.5 0 0 1 23.3 5.9v50h9.4v-50a12.5 12.5 0 0 1 23.3-5.9 29.5 29.5 0 1 0-56 0" fill="#f8c300"/><path d="M678.7 327.316a20 20 0 0 1 21.3 9.55 20 20 0 0 1 21.3-9.55 21.5 21.5 0 0 0-42.6 0" fill="#fff"/><path d="M695.3 376.293a38 38 0 0 1-63.845 24.316 39.5 39.5 0 0 1-59.734 17.467c3.65 36.426 58.252 28.989 62.32-6.429 17.154 30.115 54.873 21.49 65.91-15.4zm9.4 0a38 38 0 0 0 63.845 24.316 39.5 39.5 0 0 0 59.734 17.467c-3.65 36.426-58.252 28.989-62.32-6.429-17.154 30.115-54.873 21.49-65.91-15.4z" fill="#f8c300"/><path d="M658.84 440.976c-7.618 16.446-22.845 19.27-36.164 5.995 0 0 5.354-3.783 11.086-4.826-1.075-4.574 1.13-10.902 4.235-14.324 3.258 2.227 7.804 6.689 8.96 11.874 8.03-1.04 11.883 1.282 11.883 1.282zm59.598-1.862c-10.193 14.986-25.677 15.293-36.657.027 0 0 5.898-2.86 11.724-2.957-.316-4.688 2.89-10.572 6.51-13.443 2.852 2.728 6.611 7.87 6.908 13.174 8.092.282 11.515 3.2 11.515 3.2zm59.107 7.866c-12.498 13.127-27.825 10.909-36.173-5.941 0 0 6.286-1.863 12.049-1.009.451-4.677 4.572-9.961 8.612-12.204 2.37 3.156 5.242 8.842 4.67 14.123 7.939 1.595 10.842 5.032 10.842 5.032z" fill="#f8c300"/><path d="M603 477.666a340 340 0 0 1 194 0" fill="none" stroke-width="16" stroke="#f8c300"/><path d="M676.224 231.941h47.552l-38.47 27.951L700 214.667l14.695 45.225zm-70 18.756h47.552l-38.47 27.951L630 233.423l14.695 45.225zm-51.244 51.244h47.552l-38.47 27.951 14.694-45.225 14.695 45.225zm-18.756 70h47.552l-38.47 27.951L560 354.667l14.695 45.225zm257.552-121.244h-47.552l38.47 27.951L770 233.423l-14.695 45.225zm51.244 51.244h-47.552l38.47 27.951-14.694-45.225-14.695 45.225zm18.756 70h-47.552l38.47 27.951L840 354.667l-14.695 45.225Z" fill="#f8c300"/></svg>