<svg width="810" height="540"><path fill="#039" d="M0 0h810v540H0z"/><path d="m405 60-6.736 20.729h-21.795l17.633 12.812-6.735 20.73L405 101.46l17.633 12.812-6.735-20.73 17.633-12.812h-21.795L405 60zm0 360-6.736 20.729h-21.795l17.633 12.812-6.735 20.73L405 461.46l17.633 12.812-6.735-20.73 17.633-12.812h-21.795L405 420zM225 240l-6.736 20.729h-21.795l17.633 12.812-6.735 20.73L225 281.46l17.633 12.812-6.735-20.73 17.633-12.812h-21.795L225 240zm90-155.885-6.736 20.73h-21.795l17.633 12.811-6.735 20.73L315 125.575l17.633 12.813-6.735-20.73 17.633-12.811h-21.795L315 84.116zM249.115 150l-6.734 20.729h-21.797l17.633 12.812-6.735 20.73 17.633-12.812 17.633 12.812-6.734-20.73 17.632-12.812h-21.794L249.115 150zm0 180-6.734 20.729h-21.797l17.633 12.812-6.735 20.73 17.633-12.812 17.633 12.812-6.734-20.73 17.632-12.812h-21.794L249.115 330zM315 395.885l-6.736 20.728h-21.795l17.633 12.813-6.735 20.728L315 437.344l17.633 12.81-6.735-20.728 17.633-12.813h-21.795L315 395.885zM585 240l-6.736 20.729h-21.795l17.633 12.812-6.735 20.73L585 281.46l17.633 12.812-6.735-20.73 17.633-12.812h-21.795L585 240zM495 84.115l-6.736 20.73h-21.795l17.633 12.811-6.735 20.73L495 125.575l17.633 12.813-6.735-20.73 17.633-12.811h-21.795L495 84.116zM560.885 150l-6.737 20.729h-21.794l17.632 12.812-6.734 20.73 17.633-12.812 17.633 12.812-6.735-20.73 17.633-12.812h-21.797L560.885 150zm0 180-6.737 20.729h-21.794l17.632 12.812-6.734 20.73 17.633-12.812 17.633 12.812-6.735-20.73 17.633-12.812h-21.797L560.885 330zM495 395.885l-6.736 20.728h-21.795l17.633 12.813-6.735 20.728L495 437.344l17.633 12.81-6.735-20.728 17.633-12.813h-21.795L495 395.885z" fill="#fc0"/></svg>