<svg width="1000" height="550"><path fill="#1eb53a" d="M0 25h1000v525H0Z"/><path fill="#0099b5" d="M0 0h1000v275H0Z"/><path fill="#ce1126" d="M0 185h1000v180H0Z"/><path fill="#fff" d="M0 195h1000v160H0Z"/><g transform="translate(-14)"><circle cx="410.294" cy="105" r="60" fill="#fff"/><circle cx="430.294" cy="105" r="60" fill="#0099b5"/><path d="m542.294 45-2.693 8.291h-8.72l7.054 5.125-2.694 8.293 7.053-5.125 7.053 5.125-2.694-8.293 7.053-5.125h-8.717zm48 0-2.693 8.291h-8.72l7.054 5.125-2.694 8.293 7.053-5.125 7.053 5.125-2.694-8.293 7.053-5.125h-8.717zm48 0-2.693 8.291h-8.72l7.054 5.125-2.694 8.293 7.053-5.125 7.053 5.125-2.694-8.293 7.053-5.125h-8.717zm-144 48-2.693 8.291h-8.72l7.054 5.125-2.694 8.293 7.053-5.125 7.053 5.125-2.694-8.293 7.053-5.125h-8.717zm48 0-2.693 8.291h-8.72l7.054 5.125-2.694 8.293 7.053-5.125 7.053 5.125-2.694-8.293 7.053-5.125h-8.717zm48 0-2.693 8.291h-8.72l7.054 5.125-2.694 8.293 7.053-5.125 7.053 5.125-2.694-8.293 7.053-5.125h-8.717zm48 0-2.693 8.291h-8.72l7.054 5.125-2.694 8.293 7.053-5.125 7.053 5.125-2.694-8.293 7.053-5.125h-8.717zm-192 48-2.693 8.291h-8.72l7.054 5.125-2.694 8.293 7.053-5.125 7.053 5.125-2.694-8.293 7.053-5.125h-8.717zm48 0-2.693 8.291h-8.72l7.054 5.125-2.694 8.293 7.053-5.125 7.053 5.125-2.694-8.293 7.053-5.125h-8.717zm48 0-2.693 8.291h-8.72l7.054 5.125-2.694 8.293 7.053-5.125 7.053 5.125-2.694-8.293 7.053-5.125h-8.717zm48 0-2.693 8.291h-8.72l7.054 5.125-2.694 8.293 7.053-5.125 7.053 5.125-2.694-8.293 7.053-5.125h-8.717zm48 0-2.693 8.291h-8.72l7.054 5.125-2.694 8.293 7.053-5.125 7.053 5.125-2.694-8.293 7.053-5.125h-8.717z" fill="#fff"/></g></svg>