<svg width="1000" height="500"><path fill="#00afca" d="M0 0h1000v500H0z"/><g fill="#fec50c"><path d="M567.437 215.076a67.275 67.275 0 0 1-67.275 67.275 67.275 67.275 0 0 1-67.275-67.275 67.275 67.275 0 0 1 67.275-67.275 67.275 67.275 0 0 1 67.275 67.275Zm-67.275-76.45c4-.05 5.5-2.55 5.5-5.55 0-4-5.5-23.05-5.5-23.05s-5.5 19.05-5.5 23.05c0 3 1.5 5.55 5.5 5.55zm76.45 76.45c.05 4 2.55 5.5 5.55 5.5 4 0 23.05-5.5 23.05-5.5s-19.05-5.5-23.05-5.5c-3 0-5.55 1.5-5.55 5.5zm-76.45 76.45c-4 .05-5.5 2.55-5.5 5.55 0 4 5.5 23.05 5.5 23.05s5.5-19.05 5.5-23.05c0-3-1.5-5.55-5.5-5.55zm-76.45-76.45c-.05-4-2.55-5.5-5.55-5.5-4 0-23.05 5.5-23.05 5.5s19.05 5.5 23.05 5.5c3 0 5.55-1.5 5.55-5.5zm105.706-70.63c3.715 1.484 6.057-.252 7.205-3.023 1.53-3.696 3.74-23.4 3.74-23.4s-12.372 15.495-13.902 19.19c-1.148 2.772-.738 5.702 2.957 7.232zm41.375 99.886c-1.485 3.715.25 6.057 3.022 7.205 3.696 1.531 23.4 3.74 23.4 3.74s-15.495-12.372-19.19-13.902c-2.772-1.148-5.702-.738-7.232 2.957zm-99.887 41.374c-3.715-1.484-6.057.252-7.205 3.023-1.531 3.696-3.74 23.4-3.74 23.4s12.372-15.495 13.902-19.19c1.148-2.772.738-5.702-2.957-7.232zM429.53 185.82c1.485-3.715-.25-6.057-3.022-7.205-3.696-1.53-23.4-3.74-23.4-3.74s15.495 12.372 19.19 13.902c2.772 1.148 5.702.738 7.232-2.957zm124.689-24.802c2.864 2.793 5.693 2.086 7.814-.036 2.828-2.828 12.41-20.188 12.41-20.188s-17.36 9.582-20.188 12.41c-2.122 2.121-2.864 4.985-.036 7.814zm0 108.116c-2.793 2.864-2.086 5.693.036 7.814 2.828 2.828 20.188 12.41 20.188 12.41s-9.582-17.36-12.41-20.188c-2.121-2.122-4.985-2.864-7.814-.036zm-108.116 0c-2.864-2.793-5.693-2.086-7.814.036-2.828 2.828-12.41 20.188-12.41 20.188s17.36-9.582 20.188-12.41c2.122-2.122 2.864-4.985.036-7.814zm0-108.116c2.793-2.864 2.086-5.692-.036-7.814-2.828-2.828-20.188-12.41-20.188-12.41s9.582 17.36 12.41 20.188c2.12 2.122 4.985 2.864 7.814.036zm124.689 24.802c1.577 3.676 4.46 4.105 7.232 2.957 3.695-1.53 19.19-13.902 19.19-13.902s-19.704 2.21-23.4 3.74c-2.771 1.148-4.553 3.51-3.022 7.205zm-41.375 99.886c-3.676 1.578-4.105 4.461-2.957 7.233 1.53 3.695 13.902 19.19 13.902 19.19s-2.21-19.704-3.74-23.4c-1.148-2.77-3.51-4.553-7.205-3.022zm-99.887-41.374c-1.577-3.676-4.46-4.105-7.232-2.957-3.695 1.53-19.19 13.902-19.19 13.902s19.704-2.209 23.4-3.74c2.77-1.148 4.553-3.51 3.022-7.205zm41.375-99.886c3.676-1.578 4.105-4.46 2.957-7.233-1.53-3.695-13.902-19.19-13.902-19.19s2.209 19.704 3.74 23.4c1.148 2.771 3.51 4.553 7.205 3.022zm44.17-4.35c3.934.73 5.892-1.429 6.478-4.37.78-3.925-.898-23.68-.898-23.68s-9.11 17.61-9.89 21.533c-.586 2.942.388 5.736 4.31 6.516zm60.067 89.895c-.731 3.933 1.428 5.891 4.37 6.477 3.924.78 23.68-.898 23.68-.898s-17.61-9.11-21.534-9.89c-2.942-.586-5.736.387-6.516 4.31zm-89.896 60.066c-3.933-.73-5.891 1.428-6.477 4.37-.78 3.924.898 23.68.898 23.68s9.11-17.61 9.89-21.534c.586-2.942-.388-5.736-4.31-6.516zm-60.066-89.896c.73-3.933-1.428-5.89-4.37-6.477-3.924-.78-23.68.898-23.68.898s17.61 9.11 21.534 9.89c2.942.586 5.736-.388 6.516-4.31zm117.455-48.65c3.353 2.18 5.99.935 7.656-1.56 2.222-3.326 8.233-22.22 8.233-22.22s-15.157 12.783-17.38 16.11c-1.666 2.493-1.836 5.447 1.49 7.67zm21.092 106.038c-2.18 3.354-.936 5.99 1.559 7.657 3.326 2.222 22.22 8.233 22.22 8.233s-12.783-15.157-16.11-17.38c-2.493-1.666-5.447-1.836-7.67 1.49zm-106.04 21.093c-3.353-2.18-5.99-.936-7.656 1.56-2.222 3.325-8.233 22.22-8.233 22.22s15.157-12.784 17.38-16.11c1.666-2.494 1.836-5.448-1.49-7.67zm-21.092-106.039c2.18-3.354.936-5.99-1.56-7.657-3.325-2.222-22.22-8.233-22.22-8.233s12.784 15.157 16.11 17.38c2.494 1.666 5.448 1.836 7.67-1.49zm127.132 0c2.264 3.298 5.176 3.156 7.67 1.49 3.326-2.223 16.11-17.38 16.11-17.38s-18.895 6.01-22.221 8.233c-2.495 1.667-3.781 4.33-1.56 7.657zm-21.092 106.04c-3.3 2.263-3.157 5.175-1.49 7.67 2.222 3.325 17.379 16.11 17.379 16.11s-6.01-18.896-8.233-22.222c-1.667-2.494-4.33-3.78-7.657-1.56zm-106.04-21.094c-2.264-3.298-5.176-3.156-7.67-1.49-3.326 2.223-16.11 17.38-16.11 17.38s18.895-6.01 22.22-8.233c2.496-1.667 3.782-4.33 1.56-7.657zm21.093-106.039c3.298-2.264 3.156-5.176 1.49-7.67-2.223-3.326-17.38-16.11-17.38-16.11s6.01 18.895 8.233 22.221c1.667 2.495 4.33 3.781 7.657 1.56zm117.454 48.651c.83 3.914 3.574 4.897 6.516 4.312 3.924-.78 21.534-9.89 21.534-9.89s-19.756-1.679-23.68-.899c-2.942.586-5.15 2.554-4.37 6.477zm-60.067 89.896c-3.913.83-4.896 3.574-4.31 6.516.78 3.924 9.89 21.535 9.89 21.535s1.678-19.757.898-23.68c-.586-2.943-2.554-5.15-6.477-4.37zm-89.895-60.066c-.83-3.914-3.574-4.897-6.516-4.312-3.924.78-21.535 9.891-21.535 9.891s19.757 1.678 23.68.898c2.943-.586 5.15-2.554 4.37-6.477zm60.066-89.896c3.914-.83 4.897-3.574 4.312-6.516-.78-3.924-9.891-21.534-9.891-21.534s-1.678 19.756-.898 23.68c.586 2.942 2.554 5.15 6.477 4.37zm2.913 220.714c-1.8.1-3.55.333-5.267.883-2.35.317-4.6 1.134-6.933 1.517l-.934.15-1.567.15c.1.433.167.867.167 1.3 0 .45-.05.883-.167 1.25-.1.35-.417.783-.667 1.05-.333.367-.683.683-1.1.883-.4.2-.85.284-1.3.317-.45.017-.916 0-1.35-.167-.45-.15-.866-.433-1.25-.766-.466.116-.95.2-1.4.25-.466.05-.9.05-1.316 0a14.01 14.01 0 0 1-1.4-.467 8.07 8.07 0 0 1-1.3-.683c-1.7 1-3.6 1.95-4.634 3.7-.583.8-.7 1.716-.833 2.666-.083 1.167.217 2.4.717 3.484.183.316.333-1.15.9-1.35.95-.784 2.133-1.35 3.333-1.667 1.017-.517.883.033.467.833-.1.417-.667 2 .1 1.2 3.383-1.5 7.133-1.8 10.783-2.083 5.3-.55 10.617-.667 15.933-.733 5 .066 10 .133 15 .316 2.384.067 4.784.6 7.134.2.566-.15 1.45-.183 1.783-.516-1.067-.617-2.317-.634-3.5-.784h-9.533c-2.65-.266-5.417-.3-7.917-1.3-.667-.266-1.283-.9-1.917-.216-.95.333-1.966.566-2.966.633-1.75.133-3.5-.233-5.117-.883 1.167-1.617 2.567-3.034 3.85-4.534a39.99 39.99 0 0 1-3.067-.633c1.817-1.25 3.5-2.667 5.267-4z"/><path d="M566.026 378.081c-3.623 2.175-6.388-1.68-9.415-2.837-2.163 1.174-2.365 5.104-4.385 6.965-2.418 2.75-5.38-.769-5.16-3.483-2.891 2.437-4.353 7.961-9.028 7.223-2.215-1.808-3.861-5.6-5.553-1.282-1.38 2.111-5.055 5.115-6.958 1.927-.59-2.815-2-6.125-3.532-1.654-1.051 3.163-4.425 5.49-7.69 4.105-1.786-1.46 1.433-6.864-.841-6.48-3.4 2.248-5.377 7.83-10.121 7.383-1.843-2.068 1.118-5.572-.903-7.868-2.385 3.062-5.032 7.545-9.158 7.867-1.994-1.615.079-6.25-1.195-6.936-4.233 2.54-8.7 7.064-14.025 5.647 2.075-7.936 10.745-10.72 18.037-11.34 12.544-1.542 25.742 1.293 37.812-3.235 1.95-1.187 6.675-2.87 4.992-5.622-1.49-2.173 3.877-1.323 4.393-3.862-.32-3.215 2.463-2.772 5.182-3.054 12.188-.526 24.227 2.041 36.379 2.477.918 5.921-5.65 10.08-10.938 8.25-2.526.41-6.314-5.807-5.571-1.285-.51 2.374-.153 5.51-2.322 7.095m-103.7-12.124c2.82 2.583 4.8-.486 7.438-1.608 8.845-3.042 16.563-8.36 24.172-13.672 4.61-3.815 8.607-8.762 14.799-10 12.078-3.65 24.916-3.208 37.04-6.579 9.232-12.64 24.913-17.149 38.048-24.415 2.95-.916 4.09-3.344 5.03-6.024 5.015-7.915 11.846-14.928 19.924-19.719 3.822-2.089 8.382-3.29 12.709-2.336-.31 5.153-3.267 9.721-6.836 13.285 2.92-.064 5.43-1.91 8.383-1.806 1.012 5.29-4.7 8.057-7.74 11.35 1.694.394 8.178.884 4.644 2.58-4.502 3.125-9.644 5.27-13.8 8.9 3.834.688 4.27 1.503.372 2.89-2.111 1.431-6.17 1.931-6.563 4.72 2.897 1.78-1.335 3.548-2.967 4.127-3.12.727-6.4 2.082-2.253 4.453-1.568 2.37-4.933 2.874-7.678 2.64.833 2.685 2.039 5.69-1.446 6.874-7.812 5.905-16.98 10.201-26.8 11.184 12.267.943 24.903-1.334 35.386-8.006 1.384-1.637 8.64-3.395 4.582-4.77-1.911-.796-6.008-1.68-6.285-3.136 5.677-3.503 12.832-2.257 18.94-4.338.158-1.978-4.646-1.428-6.437-1.878-4.272-.35-4.021-1.44.097-1.844 5.21-1.38 11.113-1.65 15.497-5.049-3.57-1.653-8.058-.198-11.866-1.548 6.455-2.825 14.07-3.108 19.863-7.352 2.638-2.935-3.38-2.018-5.134-1.946-3.575.622-5.228-1.09-1.166-2.575 6.935-5.113 15.717-8.435 20.588-15.848 1.154-1.66 2.717-6.66-.964-4.86-4.84 1.608-9.1 7.05-14.614 5.366 10.867-8.422 21.207-18.01 28.634-29.665.384-3.36-4.893-3.725-6.266-1.086-6.982 6.727-13.3 14.668-22.24 18.885 8.562-8.262 15.639-18.046 21.814-28.186 1.324-3.016 4.882-6.643 2.95-9.99-3.111-2.578-7.005-.219-8.623 2.864-5.427 7.085-9.548 15.354-16.527 21.125 6.11-11.66 12.436-24.074 12.59-37.523-.02-2.77-.575-6.847-4.335-6.33-2.98.534-2.273 4.996-3.502 7.252-2.705 9.188-3.975 19.14-9.525 27.185 1.249-7.466 3.433-15.25 1.756-22.79-.783-3.37-6.225-1.92-5.524 1.415-6.5 32.93-28.597 61.73-57.495 78.39-13.232 7.487-28.011 12.313-43.048 14.501-4.045.885-8.42.366-12.286 1.745-9.368 7.184-15.04 19.203-26.9 22.968-5.317 2.642-12.25 3.178-16.05 8.116-.33.631-.4 1.363-.387 2.064"/><path d="M497.826 332.551c-1.75 3.177-2.78 6.83-5.03 9.674-6.77-6.16-16.585-5.957-25.174-6.367-7.088-.379-14.797-1.033-20.281-6.088-5.77-4.727-10.48-10.863-16.926-14.697-5.884-1.6-11.816-3.602-16.547-7.636-10.11-8.24-15.9-20.468-25.78-28.966-1.883-1.854-4.104-3.29-6.214-4.864-2.005.49-1.097 4.816-3.551 2.61-1.335-.95-4.674-1.042-4.975.285 3.02 3.98 6.044 8.524 6.463 13.615-2.06.211-5.723-.435-6.744.332a42.127 42.127 0 0 0 10.226 10.632c-1.911.307-5.676.14-6.41.91 3.955 3.223 8.196 6.517 13.374 7.345 1.06 1.397-1.55 4.095.645 5.288 1.273.52 5.472 1.39 2.58 2.837-1.985 1.338-1.248 4.455 1.29 4.385 1.605.82 5.208 1.02 5.49 2.44-1.422 1.448-5.85 3.164-2.081 4.52 3.52 1.952 7.534 3.22 11.553 3.358-2.017 1.697-4.502 2.66-6.578 4.257 9.275 5.44 19.556 9.015 29.716 12.46 4.045 1.351 8.137 2.611 12.33 3.405-12.184-.704-23.96-4.31-35.057-9.248-5.752-2.522-11.542-4.96-17.437-7.133 2.584-1.345 5.574-1.673 8.255-2.837-5.564-1.115-11.643-1.48-16.534-4.538.75-1.338 3.59-1.4 5.163-2.082 2.955-.708 4.789-1.567.622-1.824-4.203-1.14-9.023-.629-12.726-3.164.238-1.52 4.114-.99 5.693-1.647 1.988-.342 4.198-.627 5.786-1.965-6.497-2.693-14.995-.785-20.084-6.522-1.173-2.186 3.644-.425 5.016-.79 3.487 0 7.234 1.108 10.554-.297-9.467-4.157-19.608-8.048-26.828-15.736-.801-1.236-3.203-4.612-1.265-5.03 5.62.744 9.687 6.877 15.698 5.922.798-1.076-3.492-2.84-4.563-4.379-8.764-7.52-17.27-15.682-23.413-25.533-.422-3.29 4.749-3.782 6.11-1.242 6.703 6.456 12.757 13.99 21.105 18.396 2.963 1.436-1.7-1.7-2.321-2.838-7.714-8.957-15.057-18.417-20.448-28.966-.965-1.9-2.564-5.343.323-6.355 2.886-1.446 5.75.524 7.214 3.004 5.67 7.152 9.844 15.653 16.909 21.612-6.02-11.68-12.445-23.974-12.6-37.414.14-2.605.309-6.546 3.842-6.439 2.966-.45 2.497 3.348 3.47 5.16 2.923 9.873 4.197 20.56 10.06 29.277-1.295-7.324-3.201-14.867-1.935-22.313.292-2.445 3.045-3.185 4.84-1.707 1.454 3.555 1.756 7.945 3.08 11.745 7.53 25.76 24.438 48.416 46.47 63.62 18.147 12.446 39.682 19.875 61.66 21.17 1.986.174 3.979.234 5.967.356m-26.72 32.971a1.184 1.184 0 0 1-1.182 1.183 1.184 1.184 0 0 1-1.183-1.183 1.184 1.184 0 0 1 1.183-1.184 1.184 1.184 0 0 1 1.183 1.184z"/><path d="M470.308 365.33a.482.482 0 0 1-.482.482.482.482 0 0 1-.483-.482.482.482 0 0 1 .483-.483.482.482 0 0 1 .482.483z" stroke="#00afca" stroke-width=".191"/></g></svg>